<svg width="24" height="24" viewBox="0 0 24 24" fill="none" xmlns="http://www.w3.org/2000/svg">
<g clip-path="url(#clip0_4924_2778)">
<path d="M12 7.28599C12.9468 7.28599 13.7143 6.51848 13.7143 5.57171C13.7143 4.62493 12.9468 3.85742 12 3.85742C11.0532 3.85742 10.2857 4.62493 10.2857 5.57171C10.2857 6.51848 11.0532 7.28599 12 7.28599Z" fill="black"/>
<path d="M12 24C18.6274 24 24 18.6274 24 12C24 5.37258 18.6274 0 12 0C5.37258 0 0 5.37258 0 12C0.00755766 18.6243 5.37572 23.9924 12 24ZM12 0.857143C18.154 0.857143 23.1429 5.84597 23.1429 12C23.1429 18.154 18.154 23.1429 12 23.1429C5.84597 23.1429 0.857143 18.154 0.857143 12C0.864228 5.84891 5.84891 0.864228 12 0.857143Z" fill="black"/>
<path d="M5.90145 10.2862L9.54431 10.6166C10.2077 10.6735 10.7165 11.2297 10.7143 11.8955V12.8812C10.7145 13.2027 10.6542 13.5214 10.5365 13.8206L8.46688 19.0921C8.39122 19.231 8.39829 19.4004 8.48529 19.5326C8.57228 19.6648 8.72503 19.7383 8.88261 19.7237C9.04018 19.7092 9.17694 19.6091 9.23831 19.4632L11.2123 14.6701C11.3436 14.352 11.6538 14.1444 11.9979 14.1444C12.342 14.1444 12.6522 14.352 12.7835 14.6701L14.763 19.4752C14.81 19.5742 14.8936 19.6511 14.9962 19.6895C15.1585 19.7511 15.342 19.7086 15.4608 19.5819C15.5796 19.4553 15.6102 19.2694 15.5383 19.1113L13.4636 13.8206C13.3459 13.5213 13.2856 13.2024 13.2857 12.8808V11.8951C13.2828 11.2289 13.7916 10.672 14.4553 10.6149L18.0926 10.2862C18.2071 10.279 18.3139 10.2262 18.3891 10.1396C18.4643 10.053 18.5017 9.93985 18.4929 9.82548C18.4853 9.71184 18.4326 9.60595 18.3464 9.53146C18.2603 9.45698 18.1479 9.4201 18.0343 9.42906L13.5373 9.83277C13.359 9.84934 13.1803 9.85763 13.0012 9.85763H10.9989C10.8197 9.85763 10.641 9.84963 10.4627 9.83363L5.96188 9.42906C5.72519 9.41237 5.51978 9.59072 5.5031 9.82741C5.48641 10.0641 5.66476 10.2695 5.90145 10.2862Z" fill="black"/>
<path d="M12 22.2853C17.6807 22.2853 22.2857 17.6802 22.2857 11.9996C22.2857 6.31894 17.6807 1.71387 12 1.71387C6.31937 1.71387 1.71429 6.31894 1.71429 11.9996C1.72091 17.6775 6.32211 22.2787 12 22.2853ZM12 2.99958C13.4202 2.99958 14.5714 4.15085 14.5714 5.57101C14.5714 6.99117 13.4202 8.14244 12 8.14244C10.5798 8.14244 9.42858 6.99117 9.42858 5.57101C9.43 4.15144 10.5804 3.001 12 2.99958ZM6.03129 8.57444L10.539 8.97901C10.6919 8.99272 10.8452 8.99958 10.9989 8.99958H13.0012C13.1546 8.99958 13.3079 8.99272 13.461 8.97901L17.961 8.57487H17.9679C18.6759 8.5209 19.2937 9.05116 19.3477 9.75922C19.4016 10.4673 18.8714 11.085 18.1633 11.139L14.532 11.4686C14.3113 11.4885 14.1422 11.6734 14.142 11.895V12.8807C14.1419 13.0951 14.182 13.3077 14.2603 13.5073L16.3299 18.7787C16.5971 19.4245 16.2995 20.1655 15.6599 20.4471C15.0203 20.7287 14.2728 20.4478 13.977 19.8146L11.9927 14.9944L10.0286 19.7996C9.84752 20.2273 9.4499 20.524 8.9884 20.576C8.5269 20.6279 8.07325 20.427 7.80166 20.0502C7.53007 19.6735 7.48275 19.1796 7.67787 18.7582L9.74015 13.5056C9.81797 13.3062 9.85766 13.0939 9.85715 12.8799V11.8942C9.85694 11.6726 9.68785 11.4877 9.46715 11.4677L5.82858 11.1382C5.12063 11.0825 4.59181 10.4635 4.64744 9.75558C4.70306 9.04763 5.32206 8.51882 6.03001 8.57444H6.03129Z" fill="black"/>
</g>
<defs>
<clipPath id="clip0_4924_2778">
<rect width="24" height="24" fill="white"/>
</clipPath>
</defs>
</svg>
