<svg width="24" height="25" viewBox="0 0 24 25" fill="none" xmlns="http://www.w3.org/2000/svg">
<g clip-path="url(#clip0_2224_57199)">
<path d="M18.6131 0.5H5.38691C2.4118 0.5 0 2.9118 0 5.88691V19.1131C0 22.0882 2.4118 24.5 5.38691 24.5H18.6131C21.5882 24.5 24 22.0882 24 19.1131V5.88691C24 2.9118 21.5882 0.5 18.6131 0.5Z" fill="white" fill-opacity="0.12"/>
<path d="M8.31315 4.65625H15.795C15.9612 4.73938 16.2106 4.73938 16.3769 4.82251C17.1065 4.94075 17.7886 5.26013 18.3467 5.74475C18.9047 6.22937 19.3165 6.86003 19.5359 7.56584C19.6586 7.97258 19.7422 8.39015 19.7853 8.81281V16.1284C19.6664 17.0555 19.3241 17.9399 18.7877 18.7054C18.3275 19.2386 17.7506 19.6584 17.1018 19.9324C16.453 20.2063 15.7498 20.327 15.0468 20.2849H8.81194C7.69926 20.3389 6.60526 19.9841 5.73608 19.2874C5.20753 18.8307 4.79043 18.2592 4.51667 17.6166C4.2429 16.9739 4.11974 16.2772 4.15659 15.5797V9.76051C4.14285 9.34313 4.1707 8.92541 4.23972 8.51354C4.32366 7.66127 4.67409 6.85713 5.24119 6.21541C5.8083 5.57369 6.56323 5.12702 7.39871 4.9389L8.31315 4.65625ZM5.73608 12.5537V15.7958C5.70064 16.2087 5.75587 16.6243 5.89791 17.0136C6.03995 17.4029 6.26537 17.7564 6.55838 18.0494C6.85139 18.3424 7.20491 18.5678 7.59418 18.7099C7.98346 18.8519 8.39908 18.9071 8.81194 18.8717C10.9734 18.9548 13.1348 18.9548 15.2962 18.8717C17.2082 18.8717 18.2889 17.7079 18.372 15.7958C18.4552 13.6344 18.4552 11.473 18.372 9.3116C18.3936 8.902 18.3288 8.49245 18.1818 8.10951C18.0349 7.72657 17.809 7.37881 17.519 7.08878C17.229 6.79875 16.8812 6.57293 16.4983 6.42597C16.1153 6.27901 15.7058 6.2142 15.2962 6.23574C13.1348 6.15261 10.9734 6.15261 8.81194 6.23574C8.39908 6.2003 7.98346 6.25553 7.59418 6.39758C7.20491 6.53962 6.85139 6.76504 6.55838 7.05805C6.26537 7.35106 6.03995 7.70458 5.89791 8.09385C5.75587 8.48312 5.70064 8.89874 5.73608 9.3116V12.5537Z" fill="#F6F8FB"/>
<path d="M8.01385 12.5871C8.01605 11.5074 8.44592 10.4726 9.20936 9.70918C9.9728 8.94574 11.0076 8.51587 12.0873 8.51367C13.161 8.53494 14.1848 8.97093 14.9441 9.73029C15.7035 10.4896 16.1395 11.5134 16.1607 12.5871C16.1585 13.6668 15.7287 14.7016 14.9652 15.465C14.2018 16.2285 13.167 16.6583 12.0873 16.6605C11.0136 16.6393 9.98982 16.2033 9.23047 15.4439C8.47111 14.6846 8.03512 13.6608 8.01385 12.5871ZM12.0873 10.01C11.5824 10.0018 11.0865 10.1446 10.6632 10.42C10.24 10.6954 9.90856 11.0909 9.71152 11.5559C9.51449 12.0209 9.46078 12.5341 9.55728 13.0297C9.65379 13.5254 9.89611 13.981 10.2532 14.3381C10.6103 14.6952 11.0658 14.9375 11.5615 15.034C12.0572 15.1305 12.5704 15.0768 13.0354 14.8797C13.5003 14.6827 13.8959 14.3513 14.1713 13.928C14.4467 13.5048 14.5894 13.0089 14.5812 12.504C14.5812 11.8425 14.3185 11.2082 13.8508 10.7405C13.3831 10.2728 12.7487 10.01 12.0873 10.01Z" fill="#F6F8FB"/>
<path d="M15.2463 8.3468C15.2417 8.21455 15.2643 8.08275 15.3128 7.95962C15.3613 7.83649 15.4346 7.72465 15.5282 7.63108C15.6217 7.5375 15.7336 7.46419 15.8567 7.4157C15.9798 7.36721 16.1116 7.34458 16.2439 7.34923C16.5027 7.36673 16.7464 7.47746 16.9298 7.66088C17.1132 7.8443 17.224 8.08799 17.2415 8.3468C17.2415 8.61138 17.1364 8.86511 16.9493 9.0522C16.7622 9.23928 16.5085 9.34438 16.2439 9.34438C15.9793 9.34438 15.7256 9.23928 15.5385 9.0522C15.3514 8.86511 15.2463 8.61138 15.2463 8.3468Z" fill="#F6F8FB"/>
</g>
<defs>
<clipPath id="clip0_2224_57199">
<rect width="24" height="24" fill="white" transform="translate(0 0.5)"/>
</clipPath>
</defs>
</svg>
