<svg width="24" height="25" viewBox="0 0 24 25" fill="none" xmlns="http://www.w3.org/2000/svg">
<g clip-path="url(#clip0_2224_57201)">
<path d="M12 24.5C18.6274 24.5 24 19.1274 24 12.5C24 5.87258 18.6274 0.5 12 0.5C5.37258 0.5 0 5.87258 0 12.5C0 19.1274 5.37258 24.5 12 24.5Z" fill="white" fill-opacity="0.12"/>
<path fill-rule="evenodd" clip-rule="evenodd" d="M5.89588 12.1493C9.39413 10.6252 11.7268 9.6204 12.894 9.13493C16.2265 7.74882 16.919 7.50804 17.3704 7.50008C17.4696 7.49834 17.6916 7.52294 17.8354 7.6396C17.9568 7.73811 17.9902 7.87118 18.0061 7.96458C18.0221 8.05797 18.042 8.27073 18.0262 8.43698C17.8456 10.3345 17.0642 14.9391 16.6667 17.0644C16.4985 17.9636 16.1672 18.2651 15.8466 18.2946C15.1497 18.3588 14.6205 17.8341 13.9456 17.3917C12.8894 16.6993 12.2928 16.2684 11.2676 15.5928C10.0828 14.812 10.8509 14.3829 11.5261 13.6816C11.7028 13.4981 14.7732 10.7054 14.8326 10.452C14.84 10.4203 14.8469 10.3022 14.7768 10.2398C14.7066 10.1775 14.603 10.1988 14.5283 10.2158C14.4224 10.2398 12.7351 11.355 9.46663 13.5613C8.98772 13.8902 8.55393 14.0504 8.16528 14.042C7.73682 14.0328 6.91263 13.7998 6.29993 13.6006C5.54843 13.3563 4.95115 13.2272 5.00316 12.8123C5.03025 12.5962 5.32782 12.3752 5.89588 12.1493Z" fill="white"/>
</g>
<defs>
<clipPath id="clip0_2224_57201">
<rect width="24" height="24" fill="white" transform="translate(0 0.5)"/>
</clipPath>
</defs>
</svg>
