<svg width="24" height="24" viewBox="0 0 24 24" fill="none" xmlns="http://www.w3.org/2000/svg">
<path fill-rule="evenodd" clip-rule="evenodd" d="M16.707 14.7074C16.5194 14.8949 16.2651 15.0002 16 15.0002C15.7348 15.0002 15.4805 14.8949 15.293 14.7074L12 11.4144L8.70697 14.7074C8.61472 14.8029 8.50438 14.8791 8.38237 14.9315C8.26037 14.9839 8.12915 15.0115 7.99637 15.0127C7.86359 15.0138 7.73191 14.9885 7.60902 14.9382C7.48612 14.8879 7.37447 14.8137 7.28057 14.7198C7.18668 14.6259 7.11243 14.5143 7.06215 14.3914C7.01187 14.2685 6.98656 14.1368 6.98772 14.004C6.98887 13.8712 7.01646 13.74 7.06887 13.618C7.12128 13.496 7.19746 13.3857 7.29297 13.2934L11.293 9.29341C11.4805 9.10594 11.7348 9.00062 12 9.00062C12.2651 9.00062 12.5194 9.10594 12.707 9.29341L16.707 13.2934C16.8944 13.4809 16.9998 13.7352 16.9998 14.0004C16.9998 14.2656 16.8944 14.5199 16.707 14.7074Z" fill="#252C32"/>
</svg>
